<mxfile host="app.diagrams.net" modified="2024-04-10T14:11:53.655Z" agent="Mozilla/5.0 (Windows NT 10.0; Win64; x64) AppleWebKit/537.36 (KHTML, like Gecko) Chrome/123.0.0.0 Safari/537.36" etag="sFm8eIx5kkhtFh0_gyh_" version="24.2.1" type="github">
  <diagram id="R2lEEEUBdFMjLlhIrx00" name="Page-1">
    <mxGraphModel dx="2049" dy="1066" grid="1" gridSize="10" guides="1" tooltips="1" connect="1" arrows="1" fold="1" page="1" pageScale="1" pageWidth="850" pageHeight="1100" math="0" shadow="0" extFonts="Permanent Marker^https://fonts.googleapis.com/css?family=Permanent+Marker">
      <root>
        <mxCell id="0" />
        <mxCell id="1" parent="0" />
        <mxCell id="ZOgYcKl1BSKTkpPrOmgQ-7" value="customer" style="swimlane;fontStyle=1;childLayout=stackLayout;horizontal=1;startSize=26;horizontalStack=0;resizeParent=1;resizeParentMax=0;resizeLast=0;collapsible=1;marginBottom=0;align=center;fontSize=14;" vertex="1" parent="1">
          <mxGeometry x="400" y="240" width="160" height="266" as="geometry" />
        </mxCell>
        <mxCell id="ZOgYcKl1BSKTkpPrOmgQ-8" value="- customer_id: int" style="text;strokeColor=none;fillColor=none;spacingLeft=4;spacingRight=4;overflow=hidden;rotatable=0;points=[[0,0.5],[1,0.5]];portConstraint=eastwest;fontSize=12;whiteSpace=wrap;html=1;" vertex="1" parent="ZOgYcKl1BSKTkpPrOmgQ-7">
          <mxGeometry y="26" width="160" height="30" as="geometry" />
        </mxCell>
        <mxCell id="ZOgYcKl1BSKTkpPrOmgQ-10" value="- phone: string" style="text;strokeColor=none;fillColor=none;spacingLeft=4;spacingRight=4;overflow=hidden;rotatable=0;points=[[0,0.5],[1,0.5]];portConstraint=eastwest;fontSize=12;whiteSpace=wrap;html=1;" vertex="1" parent="ZOgYcKl1BSKTkpPrOmgQ-7">
          <mxGeometry y="56" width="160" height="30" as="geometry" />
        </mxCell>
        <mxCell id="ZOgYcKl1BSKTkpPrOmgQ-11" value="- full_name: string" style="text;strokeColor=none;fillColor=none;spacingLeft=4;spacingRight=4;overflow=hidden;rotatable=0;points=[[0,0.5],[1,0.5]];portConstraint=eastwest;fontSize=12;whiteSpace=wrap;html=1;" vertex="1" parent="ZOgYcKl1BSKTkpPrOmgQ-7">
          <mxGeometry y="86" width="160" height="30" as="geometry" />
        </mxCell>
        <mxCell id="ZOgYcKl1BSKTkpPrOmgQ-12" value="- dob: date" style="text;strokeColor=none;fillColor=none;spacingLeft=4;spacingRight=4;overflow=hidden;rotatable=0;points=[[0,0.5],[1,0.5]];portConstraint=eastwest;fontSize=12;whiteSpace=wrap;html=1;" vertex="1" parent="ZOgYcKl1BSKTkpPrOmgQ-7">
          <mxGeometry y="116" width="160" height="30" as="geometry" />
        </mxCell>
        <mxCell id="ZOgYcKl1BSKTkpPrOmgQ-17" value="+ register()" style="text;strokeColor=none;fillColor=none;spacingLeft=4;spacingRight=4;overflow=hidden;rotatable=0;points=[[0,0.5],[1,0.5]];portConstraint=eastwest;fontSize=12;whiteSpace=wrap;html=1;" vertex="1" parent="ZOgYcKl1BSKTkpPrOmgQ-7">
          <mxGeometry y="146" width="160" height="30" as="geometry" />
        </mxCell>
        <mxCell id="ZOgYcKl1BSKTkpPrOmgQ-18" value="+ login()" style="text;strokeColor=none;fillColor=none;spacingLeft=4;spacingRight=4;overflow=hidden;rotatable=0;points=[[0,0.5],[1,0.5]];portConstraint=eastwest;fontSize=12;whiteSpace=wrap;html=1;" vertex="1" parent="ZOgYcKl1BSKTkpPrOmgQ-7">
          <mxGeometry y="176" width="160" height="30" as="geometry" />
        </mxCell>
        <mxCell id="ZOgYcKl1BSKTkpPrOmgQ-19" value="+ update_profile()" style="text;strokeColor=none;fillColor=none;spacingLeft=4;spacingRight=4;overflow=hidden;rotatable=0;points=[[0,0.5],[1,0.5]];portConstraint=eastwest;fontSize=12;whiteSpace=wrap;html=1;" vertex="1" parent="ZOgYcKl1BSKTkpPrOmgQ-7">
          <mxGeometry y="206" width="160" height="30" as="geometry" />
        </mxCell>
        <mxCell id="ZOgYcKl1BSKTkpPrOmgQ-20" value="+ add_payment_method()" style="text;strokeColor=none;fillColor=none;spacingLeft=4;spacingRight=4;overflow=hidden;rotatable=0;points=[[0,0.5],[1,0.5]];portConstraint=eastwest;fontSize=12;whiteSpace=wrap;html=1;" vertex="1" parent="ZOgYcKl1BSKTkpPrOmgQ-7">
          <mxGeometry y="236" width="160" height="30" as="geometry" />
        </mxCell>
        <mxCell id="ZOgYcKl1BSKTkpPrOmgQ-21" value="address" style="swimlane;fontStyle=1;childLayout=stackLayout;horizontal=1;startSize=26;horizontalStack=0;resizeParent=1;resizeParentMax=0;resizeLast=0;collapsible=1;marginBottom=0;align=center;fontSize=14;" vertex="1" parent="1">
          <mxGeometry x="80" y="240" width="160" height="206" as="geometry" />
        </mxCell>
        <mxCell id="ZOgYcKl1BSKTkpPrOmgQ-22" value="- customer_id: int" style="text;strokeColor=none;fillColor=none;spacingLeft=4;spacingRight=4;overflow=hidden;rotatable=0;points=[[0,0.5],[1,0.5]];portConstraint=eastwest;fontSize=12;whiteSpace=wrap;html=1;" vertex="1" parent="ZOgYcKl1BSKTkpPrOmgQ-21">
          <mxGeometry y="26" width="160" height="30" as="geometry" />
        </mxCell>
        <mxCell id="ZOgYcKl1BSKTkpPrOmgQ-39" value="- street: string" style="text;strokeColor=none;fillColor=none;spacingLeft=4;spacingRight=4;overflow=hidden;rotatable=0;points=[[0,0.5],[1,0.5]];portConstraint=eastwest;fontSize=12;whiteSpace=wrap;html=1;" vertex="1" parent="ZOgYcKl1BSKTkpPrOmgQ-21">
          <mxGeometry y="56" width="160" height="30" as="geometry" />
        </mxCell>
        <mxCell id="ZOgYcKl1BSKTkpPrOmgQ-23" value="- city: string&lt;div&gt;&lt;br&gt;&lt;/div&gt;" style="text;strokeColor=none;fillColor=none;spacingLeft=4;spacingRight=4;overflow=hidden;rotatable=0;points=[[0,0.5],[1,0.5]];portConstraint=eastwest;fontSize=12;whiteSpace=wrap;html=1;" vertex="1" parent="ZOgYcKl1BSKTkpPrOmgQ-21">
          <mxGeometry y="86" width="160" height="30" as="geometry" />
        </mxCell>
        <mxCell id="ZOgYcKl1BSKTkpPrOmgQ-24" value="- state: string" style="text;strokeColor=none;fillColor=none;spacingLeft=4;spacingRight=4;overflow=hidden;rotatable=0;points=[[0,0.5],[1,0.5]];portConstraint=eastwest;fontSize=12;whiteSpace=wrap;html=1;" vertex="1" parent="ZOgYcKl1BSKTkpPrOmgQ-21">
          <mxGeometry y="116" width="160" height="30" as="geometry" />
        </mxCell>
        <mxCell id="ZOgYcKl1BSKTkpPrOmgQ-25" value="- postcode: string" style="text;strokeColor=none;fillColor=none;spacingLeft=4;spacingRight=4;overflow=hidden;rotatable=0;points=[[0,0.5],[1,0.5]];portConstraint=eastwest;fontSize=12;whiteSpace=wrap;html=1;" vertex="1" parent="ZOgYcKl1BSKTkpPrOmgQ-21">
          <mxGeometry y="146" width="160" height="30" as="geometry" />
        </mxCell>
        <mxCell id="ZOgYcKl1BSKTkpPrOmgQ-40" value="+ update_address()" style="text;strokeColor=none;fillColor=none;spacingLeft=4;spacingRight=4;overflow=hidden;rotatable=0;points=[[0,0.5],[1,0.5]];portConstraint=eastwest;fontSize=12;whiteSpace=wrap;html=1;" vertex="1" parent="ZOgYcKl1BSKTkpPrOmgQ-21">
          <mxGeometry y="176" width="160" height="30" as="geometry" />
        </mxCell>
        <mxCell id="ZOgYcKl1BSKTkpPrOmgQ-45" value="credit_card" style="swimlane;fontStyle=1;childLayout=stackLayout;horizontal=1;startSize=26;horizontalStack=0;resizeParent=1;resizeParentMax=0;resizeLast=0;collapsible=1;marginBottom=0;align=center;fontSize=14;" vertex="1" parent="1">
          <mxGeometry x="80" y="520" width="160" height="176" as="geometry" />
        </mxCell>
        <mxCell id="ZOgYcKl1BSKTkpPrOmgQ-46" value="- customer_id: int" style="text;strokeColor=none;fillColor=none;spacingLeft=4;spacingRight=4;overflow=hidden;rotatable=0;points=[[0,0.5],[1,0.5]];portConstraint=eastwest;fontSize=12;whiteSpace=wrap;html=1;" vertex="1" parent="ZOgYcKl1BSKTkpPrOmgQ-45">
          <mxGeometry y="26" width="160" height="30" as="geometry" />
        </mxCell>
        <mxCell id="ZOgYcKl1BSKTkpPrOmgQ-47" value="- card_number: string" style="text;strokeColor=none;fillColor=none;spacingLeft=4;spacingRight=4;overflow=hidden;rotatable=0;points=[[0,0.5],[1,0.5]];portConstraint=eastwest;fontSize=12;whiteSpace=wrap;html=1;" vertex="1" parent="ZOgYcKl1BSKTkpPrOmgQ-45">
          <mxGeometry y="56" width="160" height="30" as="geometry" />
        </mxCell>
        <mxCell id="ZOgYcKl1BSKTkpPrOmgQ-48" value="- exp_date: date&lt;div&gt;&lt;br&gt;&lt;/div&gt;" style="text;strokeColor=none;fillColor=none;spacingLeft=4;spacingRight=4;overflow=hidden;rotatable=0;points=[[0,0.5],[1,0.5]];portConstraint=eastwest;fontSize=12;whiteSpace=wrap;html=1;" vertex="1" parent="ZOgYcKl1BSKTkpPrOmgQ-45">
          <mxGeometry y="86" width="160" height="30" as="geometry" />
        </mxCell>
        <mxCell id="ZOgYcKl1BSKTkpPrOmgQ-49" value="- cvc: int" style="text;strokeColor=none;fillColor=none;spacingLeft=4;spacingRight=4;overflow=hidden;rotatable=0;points=[[0,0.5],[1,0.5]];portConstraint=eastwest;fontSize=12;whiteSpace=wrap;html=1;" vertex="1" parent="ZOgYcKl1BSKTkpPrOmgQ-45">
          <mxGeometry y="116" width="160" height="30" as="geometry" />
        </mxCell>
        <mxCell id="ZOgYcKl1BSKTkpPrOmgQ-51" value="+ update_credit_card()" style="text;strokeColor=none;fillColor=none;spacingLeft=4;spacingRight=4;overflow=hidden;rotatable=0;points=[[0,0.5],[1,0.5]];portConstraint=eastwest;fontSize=12;whiteSpace=wrap;html=1;" vertex="1" parent="ZOgYcKl1BSKTkpPrOmgQ-45">
          <mxGeometry y="146" width="160" height="30" as="geometry" />
        </mxCell>
        <mxCell id="ZOgYcKl1BSKTkpPrOmgQ-52" value="" style="group" vertex="1" connectable="0" parent="1">
          <mxGeometry x="240" y="280" width="160" height="30" as="geometry" />
        </mxCell>
        <mxCell id="ZOgYcKl1BSKTkpPrOmgQ-37" value="" style="edgeStyle=entityRelationEdgeStyle;fontSize=12;html=1;endArrow=diamond;rounded=0;exitX=1;exitY=0.5;exitDx=0;exitDy=0;entryX=0;entryY=0.5;entryDx=0;entryDy=0;endFill=1;" edge="1" parent="ZOgYcKl1BSKTkpPrOmgQ-52" source="ZOgYcKl1BSKTkpPrOmgQ-22" target="ZOgYcKl1BSKTkpPrOmgQ-8">
          <mxGeometry width="100" height="100" relative="1" as="geometry">
            <mxPoint x="9.999999999999886" y="-10" as="sourcePoint" />
            <mxPoint x="110" y="9" as="targetPoint" />
          </mxGeometry>
        </mxCell>
        <mxCell id="ZOgYcKl1BSKTkpPrOmgQ-93" value="1...*" style="edgeLabel;html=1;align=center;verticalAlign=middle;resizable=0;points=[];" vertex="1" connectable="0" parent="ZOgYcKl1BSKTkpPrOmgQ-37">
          <mxGeometry x="-0.7418" y="-1" relative="1" as="geometry">
            <mxPoint as="offset" />
          </mxGeometry>
        </mxCell>
        <mxCell id="ZOgYcKl1BSKTkpPrOmgQ-94" value="1" style="edgeLabel;html=1;align=center;verticalAlign=middle;resizable=0;points=[];" vertex="1" connectable="0" parent="ZOgYcKl1BSKTkpPrOmgQ-37">
          <mxGeometry x="0.6634" relative="1" as="geometry">
            <mxPoint as="offset" />
          </mxGeometry>
        </mxCell>
        <mxCell id="ZOgYcKl1BSKTkpPrOmgQ-59" value="" style="edgeStyle=entityRelationEdgeStyle;fontSize=12;html=1;endArrow=diamond;endFill=1;rounded=0;exitX=1;exitY=0.5;exitDx=0;exitDy=0;entryX=0;entryY=0.5;entryDx=0;entryDy=0;" edge="1" parent="1" source="ZOgYcKl1BSKTkpPrOmgQ-46">
          <mxGeometry width="100" height="100" relative="1" as="geometry">
            <mxPoint x="240" y="571" as="sourcePoint" />
            <mxPoint x="400" y="311" as="targetPoint" />
          </mxGeometry>
        </mxCell>
        <mxCell id="ZOgYcKl1BSKTkpPrOmgQ-95" value="1" style="edgeLabel;html=1;align=center;verticalAlign=middle;resizable=0;points=[];" vertex="1" connectable="0" parent="ZOgYcKl1BSKTkpPrOmgQ-59">
          <mxGeometry x="0.8574" y="2" relative="1" as="geometry">
            <mxPoint as="offset" />
          </mxGeometry>
        </mxCell>
        <mxCell id="ZOgYcKl1BSKTkpPrOmgQ-96" value="0...*" style="edgeLabel;html=1;align=center;verticalAlign=middle;resizable=0;points=[];" vertex="1" connectable="0" parent="ZOgYcKl1BSKTkpPrOmgQ-59">
          <mxGeometry x="-0.8997" y="2" relative="1" as="geometry">
            <mxPoint as="offset" />
          </mxGeometry>
        </mxCell>
        <mxCell id="ZOgYcKl1BSKTkpPrOmgQ-62" value="user" style="swimlane;fontStyle=1;childLayout=stackLayout;horizontal=1;startSize=26;horizontalStack=0;resizeParent=1;resizeParentMax=0;resizeLast=0;collapsible=1;marginBottom=0;align=center;fontSize=14;" vertex="1" parent="1">
          <mxGeometry x="720" y="240" width="160" height="206" as="geometry" />
        </mxCell>
        <mxCell id="ZOgYcKl1BSKTkpPrOmgQ-63" value="- user_id: int" style="text;strokeColor=none;fillColor=none;spacingLeft=4;spacingRight=4;overflow=hidden;rotatable=0;points=[[0,0.5],[1,0.5]];portConstraint=eastwest;fontSize=12;whiteSpace=wrap;html=1;" vertex="1" parent="ZOgYcKl1BSKTkpPrOmgQ-62">
          <mxGeometry y="26" width="160" height="30" as="geometry" />
        </mxCell>
        <mxCell id="ZOgYcKl1BSKTkpPrOmgQ-64" value="- email: string" style="text;strokeColor=none;fillColor=none;spacingLeft=4;spacingRight=4;overflow=hidden;rotatable=0;points=[[0,0.5],[1,0.5]];portConstraint=eastwest;fontSize=12;whiteSpace=wrap;html=1;" vertex="1" parent="ZOgYcKl1BSKTkpPrOmgQ-62">
          <mxGeometry y="56" width="160" height="30" as="geometry" />
        </mxCell>
        <mxCell id="ZOgYcKl1BSKTkpPrOmgQ-65" value="- password: string&lt;div&gt;&lt;br&gt;&lt;/div&gt;" style="text;strokeColor=none;fillColor=none;spacingLeft=4;spacingRight=4;overflow=hidden;rotatable=0;points=[[0,0.5],[1,0.5]];portConstraint=eastwest;fontSize=12;whiteSpace=wrap;html=1;" vertex="1" parent="ZOgYcKl1BSKTkpPrOmgQ-62">
          <mxGeometry y="86" width="160" height="30" as="geometry" />
        </mxCell>
        <mxCell id="ZOgYcKl1BSKTkpPrOmgQ-66" value="- login_status: tinyint" style="text;strokeColor=none;fillColor=none;spacingLeft=4;spacingRight=4;overflow=hidden;rotatable=0;points=[[0,0.5],[1,0.5]];portConstraint=eastwest;fontSize=12;whiteSpace=wrap;html=1;" vertex="1" parent="ZOgYcKl1BSKTkpPrOmgQ-62">
          <mxGeometry y="116" width="160" height="30" as="geometry" />
        </mxCell>
        <mxCell id="ZOgYcKl1BSKTkpPrOmgQ-67" value="- created_at: date" style="text;strokeColor=none;fillColor=none;spacingLeft=4;spacingRight=4;overflow=hidden;rotatable=0;points=[[0,0.5],[1,0.5]];portConstraint=eastwest;fontSize=12;whiteSpace=wrap;html=1;" vertex="1" parent="ZOgYcKl1BSKTkpPrOmgQ-62">
          <mxGeometry y="146" width="160" height="30" as="geometry" />
        </mxCell>
        <mxCell id="ZOgYcKl1BSKTkpPrOmgQ-68" value="+ verify_login()" style="text;strokeColor=none;fillColor=none;spacingLeft=4;spacingRight=4;overflow=hidden;rotatable=0;points=[[0,0.5],[1,0.5]];portConstraint=eastwest;fontSize=12;whiteSpace=wrap;html=1;" vertex="1" parent="ZOgYcKl1BSKTkpPrOmgQ-62">
          <mxGeometry y="176" width="160" height="30" as="geometry" />
        </mxCell>
        <mxCell id="ZOgYcKl1BSKTkpPrOmgQ-69" value="system" style="swimlane;fontStyle=1;childLayout=stackLayout;horizontal=1;startSize=26;horizontalStack=0;resizeParent=1;resizeParentMax=0;resizeLast=0;collapsible=1;marginBottom=0;align=center;fontSize=14;" vertex="1" parent="1">
          <mxGeometry x="720" y="520" width="160" height="146" as="geometry" />
        </mxCell>
        <mxCell id="ZOgYcKl1BSKTkpPrOmgQ-70" value="- role: tinyint" style="text;strokeColor=none;fillColor=none;spacingLeft=4;spacingRight=4;overflow=hidden;rotatable=0;points=[[0,0.5],[1,0.5]];portConstraint=eastwest;fontSize=12;whiteSpace=wrap;html=1;" vertex="1" parent="ZOgYcKl1BSKTkpPrOmgQ-69">
          <mxGeometry y="26" width="160" height="30" as="geometry" />
        </mxCell>
        <mxCell id="ZOgYcKl1BSKTkpPrOmgQ-71" value="+ login()" style="text;strokeColor=none;fillColor=none;spacingLeft=4;spacingRight=4;overflow=hidden;rotatable=0;points=[[0,0.5],[1,0.5]];portConstraint=eastwest;fontSize=12;whiteSpace=wrap;html=1;" vertex="1" parent="ZOgYcKl1BSKTkpPrOmgQ-69">
          <mxGeometry y="56" width="160" height="30" as="geometry" />
        </mxCell>
        <mxCell id="ZOgYcKl1BSKTkpPrOmgQ-72" value="&lt;div&gt;+ register()&lt;/div&gt;" style="text;strokeColor=none;fillColor=none;spacingLeft=4;spacingRight=4;overflow=hidden;rotatable=0;points=[[0,0.5],[1,0.5]];portConstraint=eastwest;fontSize=12;whiteSpace=wrap;html=1;" vertex="1" parent="ZOgYcKl1BSKTkpPrOmgQ-69">
          <mxGeometry y="86" width="160" height="30" as="geometry" />
        </mxCell>
        <mxCell id="ZOgYcKl1BSKTkpPrOmgQ-73" value="+ logout()" style="text;strokeColor=none;fillColor=none;spacingLeft=4;spacingRight=4;overflow=hidden;rotatable=0;points=[[0,0.5],[1,0.5]];portConstraint=eastwest;fontSize=12;whiteSpace=wrap;html=1;" vertex="1" parent="ZOgYcKl1BSKTkpPrOmgQ-69">
          <mxGeometry y="116" width="160" height="30" as="geometry" />
        </mxCell>
        <mxCell id="ZOgYcKl1BSKTkpPrOmgQ-77" value="admin" style="swimlane;fontStyle=1;childLayout=stackLayout;horizontal=1;startSize=26;horizontalStack=0;resizeParent=1;resizeParentMax=0;resizeLast=0;collapsible=1;marginBottom=0;align=center;fontSize=14;" vertex="1" parent="1">
          <mxGeometry x="1040" y="240" width="160" height="176" as="geometry" />
        </mxCell>
        <mxCell id="ZOgYcKl1BSKTkpPrOmgQ-78" value="- admin_id: int" style="text;strokeColor=none;fillColor=none;spacingLeft=4;spacingRight=4;overflow=hidden;rotatable=0;points=[[0,0.5],[1,0.5]];portConstraint=eastwest;fontSize=12;whiteSpace=wrap;html=1;" vertex="1" parent="ZOgYcKl1BSKTkpPrOmgQ-77">
          <mxGeometry y="26" width="160" height="30" as="geometry" />
        </mxCell>
        <mxCell id="ZOgYcKl1BSKTkpPrOmgQ-79" value="- phone: string" style="text;strokeColor=none;fillColor=none;spacingLeft=4;spacingRight=4;overflow=hidden;rotatable=0;points=[[0,0.5],[1,0.5]];portConstraint=eastwest;fontSize=12;whiteSpace=wrap;html=1;" vertex="1" parent="ZOgYcKl1BSKTkpPrOmgQ-77">
          <mxGeometry y="56" width="160" height="30" as="geometry" />
        </mxCell>
        <mxCell id="ZOgYcKl1BSKTkpPrOmgQ-80" value="- full_name: string" style="text;strokeColor=none;fillColor=none;spacingLeft=4;spacingRight=4;overflow=hidden;rotatable=0;points=[[0,0.5],[1,0.5]];portConstraint=eastwest;fontSize=12;whiteSpace=wrap;html=1;" vertex="1" parent="ZOgYcKl1BSKTkpPrOmgQ-77">
          <mxGeometry y="86" width="160" height="30" as="geometry" />
        </mxCell>
        <mxCell id="ZOgYcKl1BSKTkpPrOmgQ-81" value="- dob: date" style="text;strokeColor=none;fillColor=none;spacingLeft=4;spacingRight=4;overflow=hidden;rotatable=0;points=[[0,0.5],[1,0.5]];portConstraint=eastwest;fontSize=12;whiteSpace=wrap;html=1;" vertex="1" parent="ZOgYcKl1BSKTkpPrOmgQ-77">
          <mxGeometry y="116" width="160" height="30" as="geometry" />
        </mxCell>
        <mxCell id="ZOgYcKl1BSKTkpPrOmgQ-85" value="+ update()" style="text;strokeColor=none;fillColor=none;spacingLeft=4;spacingRight=4;overflow=hidden;rotatable=0;points=[[0,0.5],[1,0.5]];portConstraint=eastwest;fontSize=12;whiteSpace=wrap;html=1;" vertex="1" parent="ZOgYcKl1BSKTkpPrOmgQ-77">
          <mxGeometry y="146" width="160" height="30" as="geometry" />
        </mxCell>
        <mxCell id="ZOgYcKl1BSKTkpPrOmgQ-86" value="" style="edgeStyle=entityRelationEdgeStyle;fontSize=12;html=1;endArrow=block;endFill=0;rounded=0;exitX=1;exitY=0.5;exitDx=0;exitDy=0;entryX=0;entryY=0.5;entryDx=0;entryDy=0;" edge="1" parent="1" source="ZOgYcKl1BSKTkpPrOmgQ-8" target="ZOgYcKl1BSKTkpPrOmgQ-63">
          <mxGeometry width="100" height="100" relative="1" as="geometry">
            <mxPoint x="590" y="370" as="sourcePoint" />
            <mxPoint x="690" y="270" as="targetPoint" />
          </mxGeometry>
        </mxCell>
        <mxCell id="ZOgYcKl1BSKTkpPrOmgQ-87" value="" style="edgeStyle=entityRelationEdgeStyle;fontSize=12;html=1;endArrow=block;endFill=0;rounded=0;exitX=0;exitY=0.5;exitDx=0;exitDy=0;entryX=1;entryY=0.5;entryDx=0;entryDy=0;" edge="1" parent="1" source="ZOgYcKl1BSKTkpPrOmgQ-78" target="ZOgYcKl1BSKTkpPrOmgQ-63">
          <mxGeometry width="100" height="100" relative="1" as="geometry">
            <mxPoint x="860" y="540" as="sourcePoint" />
            <mxPoint x="1020" y="540" as="targetPoint" />
          </mxGeometry>
        </mxCell>
        <mxCell id="ZOgYcKl1BSKTkpPrOmgQ-89" value="" style="endArrow=none;html=1;rounded=0;entryX=0.496;entryY=1.057;entryDx=0;entryDy=0;entryPerimeter=0;exitX=0.5;exitY=0;exitDx=0;exitDy=0;" edge="1" parent="1" source="ZOgYcKl1BSKTkpPrOmgQ-69" target="ZOgYcKl1BSKTkpPrOmgQ-68">
          <mxGeometry relative="1" as="geometry">
            <mxPoint x="820" y="580" as="sourcePoint" />
            <mxPoint x="980" y="580" as="targetPoint" />
          </mxGeometry>
        </mxCell>
        <mxCell id="ZOgYcKl1BSKTkpPrOmgQ-90" value="login" style="edgeLabel;html=1;align=center;verticalAlign=middle;resizable=0;points=[];" vertex="1" connectable="0" parent="ZOgYcKl1BSKTkpPrOmgQ-89">
          <mxGeometry x="0.0353" y="-1" relative="1" as="geometry">
            <mxPoint as="offset" />
          </mxGeometry>
        </mxCell>
        <mxCell id="ZOgYcKl1BSKTkpPrOmgQ-103" value="book" style="swimlane;fontStyle=1;childLayout=stackLayout;horizontal=1;startSize=26;horizontalStack=0;resizeParent=1;resizeParentMax=0;resizeLast=0;collapsible=1;marginBottom=0;align=center;fontSize=14;" vertex="1" parent="1">
          <mxGeometry x="1040" y="520" width="160" height="206" as="geometry" />
        </mxCell>
        <mxCell id="ZOgYcKl1BSKTkpPrOmgQ-104" value="- book_id: int" style="text;strokeColor=none;fillColor=none;spacingLeft=4;spacingRight=4;overflow=hidden;rotatable=0;points=[[0,0.5],[1,0.5]];portConstraint=eastwest;fontSize=12;whiteSpace=wrap;html=1;" vertex="1" parent="ZOgYcKl1BSKTkpPrOmgQ-103">
          <mxGeometry y="26" width="160" height="30" as="geometry" />
        </mxCell>
        <mxCell id="ZOgYcKl1BSKTkpPrOmgQ-105" value="- book_name: string" style="text;strokeColor=none;fillColor=none;spacingLeft=4;spacingRight=4;overflow=hidden;rotatable=0;points=[[0,0.5],[1,0.5]];portConstraint=eastwest;fontSize=12;whiteSpace=wrap;html=1;" vertex="1" parent="ZOgYcKl1BSKTkpPrOmgQ-103">
          <mxGeometry y="56" width="160" height="30" as="geometry" />
        </mxCell>
        <mxCell id="ZOgYcKl1BSKTkpPrOmgQ-106" value="&lt;div&gt;- description: string&lt;/div&gt;" style="text;strokeColor=none;fillColor=none;spacingLeft=4;spacingRight=4;overflow=hidden;rotatable=0;points=[[0,0.5],[1,0.5]];portConstraint=eastwest;fontSize=12;whiteSpace=wrap;html=1;" vertex="1" parent="ZOgYcKl1BSKTkpPrOmgQ-103">
          <mxGeometry y="86" width="160" height="30" as="geometry" />
        </mxCell>
        <mxCell id="ZOgYcKl1BSKTkpPrOmgQ-107" value="- category_id: int" style="text;strokeColor=none;fillColor=none;spacingLeft=4;spacingRight=4;overflow=hidden;rotatable=0;points=[[0,0.5],[1,0.5]];portConstraint=eastwest;fontSize=12;whiteSpace=wrap;html=1;" vertex="1" parent="ZOgYcKl1BSKTkpPrOmgQ-103">
          <mxGeometry y="116" width="160" height="30" as="geometry" />
        </mxCell>
        <mxCell id="ZOgYcKl1BSKTkpPrOmgQ-108" value="- price: int" style="text;strokeColor=none;fillColor=none;spacingLeft=4;spacingRight=4;overflow=hidden;rotatable=0;points=[[0,0.5],[1,0.5]];portConstraint=eastwest;fontSize=12;whiteSpace=wrap;html=1;" vertex="1" parent="ZOgYcKl1BSKTkpPrOmgQ-103">
          <mxGeometry y="146" width="160" height="30" as="geometry" />
        </mxCell>
        <mxCell id="ZOgYcKl1BSKTkpPrOmgQ-109" value="+ insert_book()" style="text;strokeColor=none;fillColor=none;spacingLeft=4;spacingRight=4;overflow=hidden;rotatable=0;points=[[0,0.5],[1,0.5]];portConstraint=eastwest;fontSize=12;whiteSpace=wrap;html=1;" vertex="1" parent="ZOgYcKl1BSKTkpPrOmgQ-103">
          <mxGeometry y="176" width="160" height="30" as="geometry" />
        </mxCell>
        <mxCell id="ZOgYcKl1BSKTkpPrOmgQ-110" value="category" style="swimlane;fontStyle=1;childLayout=stackLayout;horizontal=1;startSize=26;horizontalStack=0;resizeParent=1;resizeParentMax=0;resizeLast=0;collapsible=1;marginBottom=0;align=center;fontSize=14;" vertex="1" parent="1">
          <mxGeometry x="1360" y="690" width="160" height="116" as="geometry" />
        </mxCell>
        <mxCell id="ZOgYcKl1BSKTkpPrOmgQ-111" value="- category_id: int" style="text;strokeColor=none;fillColor=none;spacingLeft=4;spacingRight=4;overflow=hidden;rotatable=0;points=[[0,0.5],[1,0.5]];portConstraint=eastwest;fontSize=12;whiteSpace=wrap;html=1;" vertex="1" parent="ZOgYcKl1BSKTkpPrOmgQ-110">
          <mxGeometry y="26" width="160" height="30" as="geometry" />
        </mxCell>
        <mxCell id="ZOgYcKl1BSKTkpPrOmgQ-112" value="- category_name: string" style="text;strokeColor=none;fillColor=none;spacingLeft=4;spacingRight=4;overflow=hidden;rotatable=0;points=[[0,0.5],[1,0.5]];portConstraint=eastwest;fontSize=12;whiteSpace=wrap;html=1;" vertex="1" parent="ZOgYcKl1BSKTkpPrOmgQ-110">
          <mxGeometry y="56" width="160" height="30" as="geometry" />
        </mxCell>
        <mxCell id="ZOgYcKl1BSKTkpPrOmgQ-116" value="+ insert_category()" style="text;strokeColor=none;fillColor=none;spacingLeft=4;spacingRight=4;overflow=hidden;rotatable=0;points=[[0,0.5],[1,0.5]];portConstraint=eastwest;fontSize=12;whiteSpace=wrap;html=1;" vertex="1" parent="ZOgYcKl1BSKTkpPrOmgQ-110">
          <mxGeometry y="86" width="160" height="30" as="geometry" />
        </mxCell>
        <mxCell id="ZOgYcKl1BSKTkpPrOmgQ-117" value="inventory" style="swimlane;fontStyle=1;childLayout=stackLayout;horizontal=1;startSize=26;horizontalStack=0;resizeParent=1;resizeParentMax=0;resizeLast=0;collapsible=1;marginBottom=0;align=center;fontSize=14;" vertex="1" parent="1">
          <mxGeometry x="1360" y="520" width="160" height="86" as="geometry" />
        </mxCell>
        <mxCell id="ZOgYcKl1BSKTkpPrOmgQ-122" value="+ search()" style="text;strokeColor=none;fillColor=none;spacingLeft=4;spacingRight=4;overflow=hidden;rotatable=0;points=[[0,0.5],[1,0.5]];portConstraint=eastwest;fontSize=12;whiteSpace=wrap;html=1;" vertex="1" parent="ZOgYcKl1BSKTkpPrOmgQ-117">
          <mxGeometry y="26" width="160" height="30" as="geometry" />
        </mxCell>
        <mxCell id="ZOgYcKl1BSKTkpPrOmgQ-123" value="+ update()" style="text;strokeColor=none;fillColor=none;spacingLeft=4;spacingRight=4;overflow=hidden;rotatable=0;points=[[0,0.5],[1,0.5]];portConstraint=eastwest;fontSize=12;whiteSpace=wrap;html=1;" vertex="1" parent="ZOgYcKl1BSKTkpPrOmgQ-117">
          <mxGeometry y="56" width="160" height="30" as="geometry" />
        </mxCell>
        <mxCell id="ZOgYcKl1BSKTkpPrOmgQ-124" value="" style="endArrow=none;html=1;rounded=0;" edge="1" parent="1">
          <mxGeometry relative="1" as="geometry">
            <mxPoint x="880" y="560" as="sourcePoint" />
            <mxPoint x="1040" y="560" as="targetPoint" />
          </mxGeometry>
        </mxCell>
        <mxCell id="ZOgYcKl1BSKTkpPrOmgQ-126" value="insert" style="edgeLabel;html=1;align=center;verticalAlign=middle;resizable=0;points=[];" vertex="1" connectable="0" parent="ZOgYcKl1BSKTkpPrOmgQ-124">
          <mxGeometry x="-0.0004" y="1" relative="1" as="geometry">
            <mxPoint as="offset" />
          </mxGeometry>
        </mxCell>
        <mxCell id="ZOgYcKl1BSKTkpPrOmgQ-127" value="" style="edgeStyle=entityRelationEdgeStyle;fontSize=12;html=1;endArrow=diamond;endFill=1;rounded=0;entryX=0;entryY=0.5;entryDx=0;entryDy=0;" edge="1" parent="1" target="ZOgYcKl1BSKTkpPrOmgQ-122">
          <mxGeometry width="100" height="100" relative="1" as="geometry">
            <mxPoint x="1200" y="560" as="sourcePoint" />
            <mxPoint x="1300" y="460" as="targetPoint" />
          </mxGeometry>
        </mxCell>
        <mxCell id="ZOgYcKl1BSKTkpPrOmgQ-128" value="1...*" style="edgeLabel;html=1;align=center;verticalAlign=middle;resizable=0;points=[];" vertex="1" connectable="0" parent="ZOgYcKl1BSKTkpPrOmgQ-127">
          <mxGeometry x="-0.8802" y="-2" relative="1" as="geometry">
            <mxPoint as="offset" />
          </mxGeometry>
        </mxCell>
        <mxCell id="ZOgYcKl1BSKTkpPrOmgQ-129" value="1" style="edgeLabel;html=1;align=center;verticalAlign=middle;resizable=0;points=[];" vertex="1" connectable="0" parent="ZOgYcKl1BSKTkpPrOmgQ-127">
          <mxGeometry x="0.8605" y="-2" relative="1" as="geometry">
            <mxPoint as="offset" />
          </mxGeometry>
        </mxCell>
        <mxCell id="ZOgYcKl1BSKTkpPrOmgQ-130" value="" style="edgeStyle=entityRelationEdgeStyle;fontSize=12;html=1;endArrow=diamond;endFill=1;rounded=0;exitX=1;exitY=0.5;exitDx=0;exitDy=0;entryX=0;entryY=0.5;entryDx=0;entryDy=0;" edge="1" parent="1" source="ZOgYcKl1BSKTkpPrOmgQ-105" target="ZOgYcKl1BSKTkpPrOmgQ-111">
          <mxGeometry width="100" height="100" relative="1" as="geometry">
            <mxPoint x="1230" y="628" as="sourcePoint" />
            <mxPoint x="1330" y="528" as="targetPoint" />
          </mxGeometry>
        </mxCell>
        <mxCell id="ZOgYcKl1BSKTkpPrOmgQ-132" value="1" style="edgeLabel;html=1;align=center;verticalAlign=middle;resizable=0;points=[];" vertex="1" connectable="0" parent="ZOgYcKl1BSKTkpPrOmgQ-130">
          <mxGeometry x="-0.8479" relative="1" as="geometry">
            <mxPoint as="offset" />
          </mxGeometry>
        </mxCell>
        <mxCell id="ZOgYcKl1BSKTkpPrOmgQ-133" value="1" style="edgeLabel;html=1;align=center;verticalAlign=middle;resizable=0;points=[];" vertex="1" connectable="0" parent="ZOgYcKl1BSKTkpPrOmgQ-130">
          <mxGeometry x="0.8175" y="1" relative="1" as="geometry">
            <mxPoint as="offset" />
          </mxGeometry>
        </mxCell>
        <mxCell id="ZOgYcKl1BSKTkpPrOmgQ-134" value="order" style="swimlane;fontStyle=1;childLayout=stackLayout;horizontal=1;startSize=26;horizontalStack=0;resizeParent=1;resizeParentMax=0;resizeLast=0;collapsible=1;marginBottom=0;align=center;fontSize=14;" vertex="1" parent="1">
          <mxGeometry x="400" y="580" width="160" height="146" as="geometry" />
        </mxCell>
        <mxCell id="ZOgYcKl1BSKTkpPrOmgQ-135" value="- order_id: int" style="text;strokeColor=none;fillColor=none;spacingLeft=4;spacingRight=4;overflow=hidden;rotatable=0;points=[[0,0.5],[1,0.5]];portConstraint=eastwest;fontSize=12;whiteSpace=wrap;html=1;" vertex="1" parent="ZOgYcKl1BSKTkpPrOmgQ-134">
          <mxGeometry y="26" width="160" height="30" as="geometry" />
        </mxCell>
        <mxCell id="ZOgYcKl1BSKTkpPrOmgQ-136" value="- customer_id: int" style="text;strokeColor=none;fillColor=none;spacingLeft=4;spacingRight=4;overflow=hidden;rotatable=0;points=[[0,0.5],[1,0.5]];portConstraint=eastwest;fontSize=12;whiteSpace=wrap;html=1;" vertex="1" parent="ZOgYcKl1BSKTkpPrOmgQ-134">
          <mxGeometry y="56" width="160" height="30" as="geometry" />
        </mxCell>
        <mxCell id="ZOgYcKl1BSKTkpPrOmgQ-137" value="&lt;div&gt;- created_at: date&lt;/div&gt;" style="text;strokeColor=none;fillColor=none;spacingLeft=4;spacingRight=4;overflow=hidden;rotatable=0;points=[[0,0.5],[1,0.5]];portConstraint=eastwest;fontSize=12;whiteSpace=wrap;html=1;" vertex="1" parent="ZOgYcKl1BSKTkpPrOmgQ-134">
          <mxGeometry y="86" width="160" height="30" as="geometry" />
        </mxCell>
        <mxCell id="ZOgYcKl1BSKTkpPrOmgQ-153" value="+ calculate_total_price()" style="text;strokeColor=none;fillColor=none;spacingLeft=4;spacingRight=4;overflow=hidden;rotatable=0;points=[[0,0.5],[1,0.5]];portConstraint=eastwest;fontSize=12;whiteSpace=wrap;html=1;" vertex="1" parent="ZOgYcKl1BSKTkpPrOmgQ-134">
          <mxGeometry y="116" width="160" height="30" as="geometry" />
        </mxCell>
        <mxCell id="ZOgYcKl1BSKTkpPrOmgQ-140" value="" style="endArrow=none;html=1;rounded=0;exitX=1;exitY=0.5;exitDx=0;exitDy=0;" edge="1" parent="1" source="ZOgYcKl1BSKTkpPrOmgQ-136">
          <mxGeometry relative="1" as="geometry">
            <mxPoint x="560" y="562.6700000000001" as="sourcePoint" />
            <mxPoint x="720" y="562.6700000000001" as="targetPoint" />
          </mxGeometry>
        </mxCell>
        <mxCell id="ZOgYcKl1BSKTkpPrOmgQ-142" value="register" style="edgeLabel;html=1;align=center;verticalAlign=middle;resizable=0;points=[];" vertex="1" connectable="0" parent="ZOgYcKl1BSKTkpPrOmgQ-140">
          <mxGeometry x="0.0007" relative="1" as="geometry">
            <mxPoint as="offset" />
          </mxGeometry>
        </mxCell>
        <mxCell id="ZOgYcKl1BSKTkpPrOmgQ-146" value="" style="edgeStyle=entityRelationEdgeStyle;fontSize=12;html=1;endArrow=diamond;endFill=1;rounded=0;exitX=1;exitY=0.5;exitDx=0;exitDy=0;entryX=1;entryY=0.5;entryDx=0;entryDy=0;" edge="1" parent="1" source="ZOgYcKl1BSKTkpPrOmgQ-135" target="ZOgYcKl1BSKTkpPrOmgQ-10">
          <mxGeometry width="100" height="100" relative="1" as="geometry">
            <mxPoint x="600" y="560" as="sourcePoint" />
            <mxPoint x="700" y="460" as="targetPoint" />
          </mxGeometry>
        </mxCell>
        <mxCell id="ZOgYcKl1BSKTkpPrOmgQ-147" value="1" style="edgeLabel;html=1;align=center;verticalAlign=middle;resizable=0;points=[];" vertex="1" connectable="0" parent="ZOgYcKl1BSKTkpPrOmgQ-146">
          <mxGeometry x="0.8822" y="1" relative="1" as="geometry">
            <mxPoint as="offset" />
          </mxGeometry>
        </mxCell>
        <mxCell id="ZOgYcKl1BSKTkpPrOmgQ-148" value="0...*" style="edgeLabel;html=1;align=center;verticalAlign=middle;resizable=0;points=[];" vertex="1" connectable="0" parent="ZOgYcKl1BSKTkpPrOmgQ-146">
          <mxGeometry x="-0.9124" relative="1" as="geometry">
            <mxPoint as="offset" />
          </mxGeometry>
        </mxCell>
        <mxCell id="ZOgYcKl1BSKTkpPrOmgQ-149" value="order_detail" style="swimlane;fontStyle=1;childLayout=stackLayout;horizontal=1;startSize=26;horizontalStack=0;resizeParent=1;resizeParentMax=0;resizeLast=0;collapsible=1;marginBottom=0;align=center;fontSize=14;" vertex="1" parent="1">
          <mxGeometry x="400" y="806" width="160" height="116" as="geometry" />
        </mxCell>
        <mxCell id="ZOgYcKl1BSKTkpPrOmgQ-150" value="- order_id: int" style="text;strokeColor=none;fillColor=none;spacingLeft=4;spacingRight=4;overflow=hidden;rotatable=0;points=[[0,0.5],[1,0.5]];portConstraint=eastwest;fontSize=12;whiteSpace=wrap;html=1;" vertex="1" parent="ZOgYcKl1BSKTkpPrOmgQ-149">
          <mxGeometry y="26" width="160" height="30" as="geometry" />
        </mxCell>
        <mxCell id="ZOgYcKl1BSKTkpPrOmgQ-151" value="- book_id: int" style="text;strokeColor=none;fillColor=none;spacingLeft=4;spacingRight=4;overflow=hidden;rotatable=0;points=[[0,0.5],[1,0.5]];portConstraint=eastwest;fontSize=12;whiteSpace=wrap;html=1;" vertex="1" parent="ZOgYcKl1BSKTkpPrOmgQ-149">
          <mxGeometry y="56" width="160" height="30" as="geometry" />
        </mxCell>
        <mxCell id="ZOgYcKl1BSKTkpPrOmgQ-152" value="&lt;div&gt;- quantity: int&lt;/div&gt;" style="text;strokeColor=none;fillColor=none;spacingLeft=4;spacingRight=4;overflow=hidden;rotatable=0;points=[[0,0.5],[1,0.5]];portConstraint=eastwest;fontSize=12;whiteSpace=wrap;html=1;" vertex="1" parent="ZOgYcKl1BSKTkpPrOmgQ-149">
          <mxGeometry y="86" width="160" height="30" as="geometry" />
        </mxCell>
        <mxCell id="ZOgYcKl1BSKTkpPrOmgQ-154" value="" style="edgeStyle=entityRelationEdgeStyle;fontSize=12;html=1;endArrow=diamond;endFill=1;rounded=0;exitX=1;exitY=0.5;exitDx=0;exitDy=0;entryX=1;entryY=0.5;entryDx=0;entryDy=0;" edge="1" parent="1" source="ZOgYcKl1BSKTkpPrOmgQ-150" target="ZOgYcKl1BSKTkpPrOmgQ-137">
          <mxGeometry width="100" height="100" relative="1" as="geometry">
            <mxPoint x="670" y="790" as="sourcePoint" />
            <mxPoint x="770" y="690" as="targetPoint" />
          </mxGeometry>
        </mxCell>
        <mxCell id="ZOgYcKl1BSKTkpPrOmgQ-155" value="has" style="edgeLabel;html=1;align=center;verticalAlign=middle;resizable=0;points=[];" vertex="1" connectable="0" parent="ZOgYcKl1BSKTkpPrOmgQ-154">
          <mxGeometry x="-0.0071" relative="1" as="geometry">
            <mxPoint as="offset" />
          </mxGeometry>
        </mxCell>
        <mxCell id="ZOgYcKl1BSKTkpPrOmgQ-156" value="1" style="edgeLabel;html=1;align=center;verticalAlign=middle;resizable=0;points=[];" vertex="1" connectable="0" parent="ZOgYcKl1BSKTkpPrOmgQ-154">
          <mxGeometry x="0.8844" y="-1" relative="1" as="geometry">
            <mxPoint as="offset" />
          </mxGeometry>
        </mxCell>
        <mxCell id="ZOgYcKl1BSKTkpPrOmgQ-157" value="1" style="edgeLabel;html=1;align=center;verticalAlign=middle;resizable=0;points=[];" vertex="1" connectable="0" parent="ZOgYcKl1BSKTkpPrOmgQ-154">
          <mxGeometry x="-0.8558" y="-2" relative="1" as="geometry">
            <mxPoint as="offset" />
          </mxGeometry>
        </mxCell>
        <mxCell id="ZOgYcKl1BSKTkpPrOmgQ-158" value="1...*" style="edgeLabel;html=1;align=center;verticalAlign=middle;resizable=0;points=[];" vertex="1" connectable="0" parent="ZOgYcKl1BSKTkpPrOmgQ-154">
          <mxGeometry x="-0.8901" y="1" relative="1" as="geometry">
            <mxPoint as="offset" />
          </mxGeometry>
        </mxCell>
        <mxCell id="ZOgYcKl1BSKTkpPrOmgQ-159" value="" style="edgeStyle=entityRelationEdgeStyle;fontSize=12;html=1;endArrow=diamond;endFill=1;rounded=0;exitX=1;exitY=0.5;exitDx=0;exitDy=0;entryX=0;entryY=0.5;entryDx=0;entryDy=0;" edge="1" parent="1" source="ZOgYcKl1BSKTkpPrOmgQ-151" target="ZOgYcKl1BSKTkpPrOmgQ-105">
          <mxGeometry width="100" height="100" relative="1" as="geometry">
            <mxPoint x="670" y="790" as="sourcePoint" />
            <mxPoint x="770" y="690" as="targetPoint" />
          </mxGeometry>
        </mxCell>
        <mxCell id="ZOgYcKl1BSKTkpPrOmgQ-160" value="1" style="edgeLabel;html=1;align=center;verticalAlign=middle;resizable=0;points=[];" vertex="1" connectable="0" parent="ZOgYcKl1BSKTkpPrOmgQ-159">
          <mxGeometry x="0.9239" y="2" relative="1" as="geometry">
            <mxPoint as="offset" />
          </mxGeometry>
        </mxCell>
        <mxCell id="ZOgYcKl1BSKTkpPrOmgQ-161" value="1" style="edgeLabel;html=1;align=center;verticalAlign=middle;resizable=0;points=[];" vertex="1" connectable="0" parent="ZOgYcKl1BSKTkpPrOmgQ-159">
          <mxGeometry x="-0.9485" y="2" relative="1" as="geometry">
            <mxPoint as="offset" />
          </mxGeometry>
        </mxCell>
        <mxCell id="ZOgYcKl1BSKTkpPrOmgQ-162" value="&lt;h1 style=&quot;margin-top: 0px;&quot;&gt;EMILY&#39;S BOOKSHELF&lt;/h1&gt;&lt;p&gt;&lt;font style=&quot;font-size: 18px;&quot;&gt;Domain Class Diagram&lt;/font&gt;&lt;/p&gt;" style="text;html=1;whiteSpace=wrap;overflow=hidden;rounded=0;" vertex="1" parent="1">
          <mxGeometry x="80" y="80" width="390" height="80" as="geometry" />
        </mxCell>
      </root>
    </mxGraphModel>
  </diagram>
</mxfile>
